<svg id="Layer_1" data-name="Layer 1" xmlns="http://www.w3.org/2000/svg" xmlns:xlink="http://www.w3.org/1999/xlink" viewBox="0 0 95 95"><defs><style>.cls-1{fill:url(#New_Gradient_Swatch_1);}.cls-2{fill:none;stroke:#4d4d4d;stroke-miterlimit:10;stroke-width:2px;opacity:0.5;}</style><linearGradient id="New_Gradient_Swatch_1" y1="47.5" x2="95" y2="47.5" gradientUnits="userSpaceOnUse"><stop offset="0" stop-color="#00a99d"/><stop offset="1" stop-color="#99ddd8"/></linearGradient></defs><title>compliance_icon</title><circle class="cls-1" cx="47.5" cy="47.5" r="47.5"/><path class="cls-2" d="M75.8,20H22.56a6.21,6.21,0,0,0-6.14,6.27v46a6.21,6.21,0,0,0,6.14,6.27H75.8a6.21,6.21,0,0,0,6.14-6.27v-46A6.21,6.21,0,0,0,75.8,20ZM75,72.3H23.33a.78.78,0,0,1-.77-.79V27.07a.79.79,0,0,1,.77-.79H75a.78.78,0,0,1,.77.79V71.51A.77.77,0,0,1,75,72.3Zm-5.37-12v3.14A1.55,1.55,0,0,1,68.12,65H42.53A1.55,1.55,0,0,1,41,63.41V60.27a1.56,1.56,0,0,1,1.54-1.57H68.12A1.56,1.56,0,0,1,69.66,60.27Zm0-12.55v3.14a1.55,1.55,0,0,1-1.54,1.57H42.53A1.55,1.55,0,0,1,41,50.86V47.72a1.56,1.56,0,0,1,1.54-1.57H68.12A1.56,1.56,0,0,1,69.66,47.72Zm0-12.55v3.14a1.55,1.55,0,0,1-1.54,1.57H42.53A1.55,1.55,0,0,1,41,38.31V35.17a1.55,1.55,0,0,1,1.54-1.56H68.12A1.55,1.55,0,0,1,69.66,35.17ZM37.41,36.74A4.61,4.61,0,1,1,32.8,32,4.67,4.67,0,0,1,37.41,36.74Zm0,12.55a4.61,4.61,0,1,1-4.61-4.7A4.67,4.67,0,0,1,37.41,49.29Zm0,12.55a4.61,4.61,0,1,1-4.61-4.71A4.67,4.67,0,0,1,37.41,61.84Z" transform="translate(-1.94 -2.76)"/></svg>