<svg id="Layer_1" data-name="Layer 1" xmlns="http://www.w3.org/2000/svg" xmlns:xlink="http://www.w3.org/1999/xlink" viewBox="0 0 95 95"><defs><style>.cls-1{fill:url(#New_Gradient_Swatch_1);}.cls-2{opacity:0.5;}.cls-3{fill:none;stroke:#4d4d4d;stroke-miterlimit:10;stroke-width:2px;}</style><linearGradient id="New_Gradient_Swatch_1" y1="47.5" x2="95" y2="47.5" gradientUnits="userSpaceOnUse"><stop offset="0" stop-color="#00a99d"/><stop offset="1" stop-color="#99ddd8"/></linearGradient></defs><title>guitar_icon</title><circle class="cls-1" cx="47.5" cy="47.5" r="47.5"/><g class="cls-2"><path class="cls-3" d="M81,20.88l-4-4a4.34,4.34,0,0,0-6.16,0h0l-6.3,6.3A4.83,4.83,0,0,0,63.37,25l-1.66,5L51.34,40.38a15.22,15.22,0,0,0-5.46-2.61c-4.55-1.06-9.12-.12-12.23,3a11.17,11.17,0,0,0-2.76,4.55A6.88,6.88,0,0,1,25.15,50a13.67,13.67,0,0,0-8.52,3.87c-6.21,6.2-5.09,17.36,2.46,24.9s18.7,8.65,24.9,2.46a13.66,13.66,0,0,0,3.88-8.53A6.89,6.89,0,0,1,52.55,67a11.25,11.25,0,0,0,4.56-2.75c3.11-3.12,4-7.67,3-12.22a15.27,15.27,0,0,0-2.61-5.47L67.87,36.15l5-1.65a4.79,4.79,0,0,0,1.87-1.16L81,27a4.35,4.35,0,0,0,0-6.15Zm-40.1,42.6A6.54,6.54,0,1,1,47.46,57,6.53,6.53,0,0,1,40.92,63.48Z" transform="translate(-2 -3)"/><polygon class="cls-3" points="71.29 17.52 75.29 21.52 68.29 27.52 65.29 24.52 71.29 17.52"/></g></svg>