<svg id="Layer_1" data-name="Layer 1" xmlns="http://www.w3.org/2000/svg" xmlns:xlink="http://www.w3.org/1999/xlink" viewBox="0 0 95 95"><defs><style>.cls-1{fill:url(#New_Gradient_Swatch_1);}.cls-2{fill:none;stroke:#4d4d4d;stroke-miterlimit:10;stroke-width:2px;opacity:0.5;}</style><linearGradient id="New_Gradient_Swatch_1" y1="47.5" x2="95" y2="47.5" gradientUnits="userSpaceOnUse"><stop offset="0" stop-color="#00a99d"/><stop offset="1" stop-color="#99ddd8"/></linearGradient></defs><title>nervous_icon</title><circle class="cls-1" cx="47.5" cy="47.5" r="47.5"/><path class="cls-2" d="M49.47,87.36A36.83,36.83,0,1,1,86.29,50.53,36.86,36.86,0,0,1,49.47,87.36ZM67.15,29.91A14.73,14.73,0,1,0,81.88,44.64,14.72,14.72,0,0,0,67.15,29.91Zm0,23.57A8.84,8.84,0,1,1,76,44.64,8.84,8.84,0,0,1,67.15,53.48Zm0-13.26a4.42,4.42,0,1,0,4.42,4.42A4.41,4.41,0,0,0,67.15,40.22ZM46.53,44.64A14.73,14.73,0,1,0,31.8,59.37,14.72,14.72,0,0,0,46.53,44.64ZM31.8,53.48a8.84,8.84,0,1,1,8.84-8.84A8.84,8.84,0,0,1,31.8,53.48Zm0-13.26a4.42,4.42,0,1,0,4.42,4.42A4.41,4.41,0,0,0,31.8,40.22ZM61.26,66.73H37.69a4.42,4.42,0,0,0,0,8.84H61.26a4.42,4.42,0,0,0,0-8.84Z" transform="translate(-2.29 -2.54)"/></svg>