<svg id="Layer_1" data-name="Layer 1" xmlns="http://www.w3.org/2000/svg" viewBox="0 0 96.35 96.04"><defs><style>.cls-1,.cls-2,.cls-3,.cls-4{fill:none;stroke-miterlimit:10;stroke-width:2px;}.cls-1{stroke:#f7931e;}.cls-2{stroke:#0071bc;}.cls-3{stroke:#666;}.cls-4{stroke:#d44c33;}</style></defs><title>trw-icon</title><g id="Branch_Right" data-name="Branch Right"><polyline class="cls-1" points="55.48 28.48 72.82 53.46 55.48 53.46"/><polyline class="cls-1" points="55.48 40.97 76.98 69.75 55.48 69.75"/><polyline class="cls-1" points="55.48 19.33 70.34 37.62 55.48 37.62"/><polyline class="cls-1" points="55.48 11.97 67.19 26.69 55.48 26.69"/></g><g id="Branch_Left" data-name="Branch Left"><polyline class="cls-2" points="41.85 40.97 20.34 69.75 41.85 69.75"/><polyline class="cls-2" points="41.85 28.48 24.51 53.46 41.85 53.46"/><polyline class="cls-2" points="41.85 19.33 26.99 37.62 41.85 37.62"/><polyline class="cls-2" points="41.85 11.97 30.14 26.69 41.85 26.69"/></g><ellipse class="cls-3" cx="48.18" cy="48.02" rx="47.18" ry="47.02"/><polygon class="cls-4" points="52.38 12.61 52.38 88.9 45.01 88.9 45.01 12.61 48.69 8.81 52.38 12.61"/></svg>